<mxfile host="app.diagrams.net" modified="2023-09-04T10:36:59.723Z" agent="Mozilla/5.0 (Windows NT 10.0; Win64; x64) AppleWebKit/537.36 (KHTML, like Gecko) Chrome/116.0.0.0 Safari/537.36 Edg/116.0.1938.62" etag="JN5lcI4OYPJSlRst6u_H" version="21.6.8" type="github">
  <diagram name="第 1 页" id="fag1-L5ulHnRwEk2MGX6">
    <mxGraphModel dx="2206" dy="-395" grid="1" gridSize="10" guides="1" tooltips="1" connect="1" arrows="1" fold="1" page="1" pageScale="1" pageWidth="827" pageHeight="1169" math="0" shadow="0">
      <root>
        <mxCell id="0" />
        <mxCell id="1" parent="0" />
        <mxCell id="21ydrOUmSF8WkzqlIm3v-1" style="edgeStyle=orthogonalEdgeStyle;rounded=0;orthogonalLoop=1;jettySize=auto;html=1;exitX=1;exitY=0.5;exitDx=0;exitDy=0;fontSize=23;" edge="1" parent="1" source="21ydrOUmSF8WkzqlIm3v-2" target="21ydrOUmSF8WkzqlIm3v-17">
          <mxGeometry relative="1" as="geometry">
            <mxPoint x="-105.5" y="2235" as="targetPoint" />
          </mxGeometry>
        </mxCell>
        <mxCell id="21ydrOUmSF8WkzqlIm3v-2" value="&lt;font style=&quot;font-size: 23px;&quot;&gt;开始&lt;/font&gt;" style="rounded=1;whiteSpace=wrap;html=1;" vertex="1" parent="1">
          <mxGeometry x="-205.5" y="2220" width="70" height="30" as="geometry" />
        </mxCell>
        <mxCell id="21ydrOUmSF8WkzqlIm3v-3" value="sdm生成&lt;br&gt;采购单" style="text;html=1;strokeColor=none;fillColor=none;align=center;verticalAlign=middle;whiteSpace=wrap;rounded=0;fontSize=11;" vertex="1" parent="1">
          <mxGeometry x="-168.25" y="2185" width="60" height="30" as="geometry" />
        </mxCell>
        <mxCell id="21ydrOUmSF8WkzqlIm3v-4" value="&lt;font color=&quot;#ff0000&quot; style=&quot;font-size: 14px;&quot;&gt;&lt;b&gt;接单&lt;/b&gt;&lt;/font&gt;" style="text;html=1;align=center;verticalAlign=middle;resizable=0;points=[];autosize=1;strokeColor=none;fillColor=none;fontSize=11;" vertex="1" parent="1">
          <mxGeometry x="14.5" y="2190" width="50" height="30" as="geometry" />
        </mxCell>
        <mxCell id="21ydrOUmSF8WkzqlIm3v-10" style="edgeStyle=orthogonalEdgeStyle;rounded=0;orthogonalLoop=1;jettySize=auto;html=1;exitX=0.1;exitY=0.5;exitDx=0;exitDy=0;exitPerimeter=0;entryX=0.5;entryY=0;entryDx=0;entryDy=0;fontSize=14;" edge="1" parent="1" source="21ydrOUmSF8WkzqlIm3v-11" target="21ydrOUmSF8WkzqlIm3v-12">
          <mxGeometry relative="1" as="geometry" />
        </mxCell>
        <mxCell id="21ydrOUmSF8WkzqlIm3v-11" value="" style="shape=curlyBracket;whiteSpace=wrap;html=1;rounded=1;fontSize=14;rotation=-90;" vertex="1" parent="1">
          <mxGeometry x="364.13" y="2150.25" width="50" height="533" as="geometry" />
        </mxCell>
        <mxCell id="21ydrOUmSF8WkzqlIm3v-12" value="已关闭" style="ellipse;whiteSpace=wrap;html=1;aspect=fixed;fontSize=23;fillColor=#f8cecc;strokeColor=#b85450;" vertex="1" parent="1">
          <mxGeometry x="349.13" y="2469.25" width="80" height="80" as="geometry" />
        </mxCell>
        <mxCell id="21ydrOUmSF8WkzqlIm3v-13" value="一级状态：待发货、待收货、拒绝收货&lt;br&gt;可取消" style="text;html=1;align=center;verticalAlign=middle;resizable=0;points=[];autosize=1;strokeColor=none;fillColor=none;fontSize=14;" vertex="1" parent="1">
          <mxGeometry x="124.5" y="2430" width="260" height="50" as="geometry" />
        </mxCell>
        <mxCell id="21ydrOUmSF8WkzqlIm3v-14" value="&lt;font style=&quot;font-size: 23px;&quot;&gt;开始&lt;/font&gt;" style="rounded=1;whiteSpace=wrap;html=1;fillColor=#d5e8d4;strokeColor=#82b366;" vertex="1" parent="1">
          <mxGeometry x="-205.5" y="2220" width="70" height="30" as="geometry" />
        </mxCell>
        <mxCell id="21ydrOUmSF8WkzqlIm3v-15" value="&lt;font style=&quot;font-size: 16px;&quot;&gt;home2.5-代销直送流程&lt;/font&gt;" style="text;html=1;strokeColor=#9673a6;fillColor=#e1d5e7;align=center;verticalAlign=middle;whiteSpace=wrap;rounded=0;" vertex="1" parent="1">
          <mxGeometry x="104.5" y="2560" width="200" height="30" as="geometry" />
        </mxCell>
        <mxCell id="21ydrOUmSF8WkzqlIm3v-16" style="edgeStyle=orthogonalEdgeStyle;rounded=0;orthogonalLoop=1;jettySize=auto;html=1;exitX=1;exitY=0.5;exitDx=0;exitDy=0;" edge="1" parent="1" source="21ydrOUmSF8WkzqlIm3v-17" target="21ydrOUmSF8WkzqlIm3v-60">
          <mxGeometry relative="1" as="geometry">
            <mxPoint x="54.25" y="2235" as="targetPoint" />
          </mxGeometry>
        </mxCell>
        <mxCell id="21ydrOUmSF8WkzqlIm3v-17" value="&lt;font style=&quot;font-size: 14px;&quot;&gt;一级状态：待接单&lt;br&gt;二级状态：&lt;/font&gt;" style="rounded=0;whiteSpace=wrap;html=1;fillColor=#d5e8d4;strokeColor=#82b366;" vertex="1" parent="1">
          <mxGeometry x="-94.5" y="2215" width="120" height="40" as="geometry" />
        </mxCell>
        <mxCell id="21ydrOUmSF8WkzqlIm3v-19" style="edgeStyle=orthogonalEdgeStyle;rounded=0;orthogonalLoop=1;jettySize=auto;html=1;" edge="1" parent="1" source="21ydrOUmSF8WkzqlIm3v-60" target="21ydrOUmSF8WkzqlIm3v-23">
          <mxGeometry relative="1" as="geometry">
            <mxPoint x="191.75" y="2235" as="sourcePoint" />
          </mxGeometry>
        </mxCell>
        <mxCell id="21ydrOUmSF8WkzqlIm3v-22" style="edgeStyle=orthogonalEdgeStyle;rounded=0;orthogonalLoop=1;jettySize=auto;html=1;exitX=1;exitY=0.5;exitDx=0;exitDy=0;" edge="1" parent="1" source="21ydrOUmSF8WkzqlIm3v-23" target="21ydrOUmSF8WkzqlIm3v-25">
          <mxGeometry relative="1" as="geometry" />
        </mxCell>
        <mxCell id="21ydrOUmSF8WkzqlIm3v-23" value="&lt;font style=&quot;font-size: 14px;&quot;&gt;一级状态：待发货&lt;br&gt;二级状态：&lt;/font&gt;" style="rounded=0;whiteSpace=wrap;html=1;fillColor=#d5e8d4;strokeColor=#82b366;" vertex="1" parent="1">
          <mxGeometry x="220.5" y="2215" width="116.5" height="40" as="geometry" />
        </mxCell>
        <mxCell id="21ydrOUmSF8WkzqlIm3v-24" style="edgeStyle=orthogonalEdgeStyle;rounded=0;orthogonalLoop=1;jettySize=auto;html=1;exitX=1;exitY=0.5;exitDx=0;exitDy=0;entryX=0;entryY=0.5;entryDx=0;entryDy=0;" edge="1" parent="1" source="21ydrOUmSF8WkzqlIm3v-25" target="21ydrOUmSF8WkzqlIm3v-38">
          <mxGeometry relative="1" as="geometry">
            <mxPoint x="528.6300000000001" y="2235" as="targetPoint" />
          </mxGeometry>
        </mxCell>
        <mxCell id="21ydrOUmSF8WkzqlIm3v-25" value="&lt;font style=&quot;font-size: 14px;&quot;&gt;一级状态：待收货&lt;br&gt;二级状态：&lt;/font&gt;" style="rounded=0;whiteSpace=wrap;html=1;fillColor=#d5e8d4;strokeColor=#82b366;" vertex="1" parent="1">
          <mxGeometry x="378" y="2215" width="116.5" height="40" as="geometry" />
        </mxCell>
        <mxCell id="21ydrOUmSF8WkzqlIm3v-27" value="&lt;font color=&quot;#ff0000&quot;&gt;&lt;span style=&quot;font-size: 14px;&quot;&gt;&lt;b&gt;发货&lt;/b&gt;&lt;/span&gt;&lt;/font&gt;" style="text;html=1;align=center;verticalAlign=middle;resizable=0;points=[];autosize=1;strokeColor=none;fillColor=none;fontSize=11;" vertex="1" parent="1">
          <mxGeometry x="328" y="2203" width="50" height="30" as="geometry" />
        </mxCell>
        <mxCell id="21ydrOUmSF8WkzqlIm3v-35" value="&lt;font color=&quot;#ff0000&quot;&gt;&lt;span style=&quot;font-size: 14px;&quot;&gt;&lt;b&gt;送达&lt;/b&gt;&lt;/span&gt;&lt;/font&gt;" style="text;html=1;align=center;verticalAlign=middle;resizable=0;points=[];autosize=1;strokeColor=none;fillColor=none;fontSize=11;" vertex="1" parent="1">
          <mxGeometry x="499" y="2195" width="50" height="30" as="geometry" />
        </mxCell>
        <mxCell id="21ydrOUmSF8WkzqlIm3v-36" style="edgeStyle=orthogonalEdgeStyle;rounded=0;orthogonalLoop=1;jettySize=auto;html=1;exitX=1;exitY=0.5;exitDx=0;exitDy=0;" edge="1" parent="1" source="21ydrOUmSF8WkzqlIm3v-38" target="21ydrOUmSF8WkzqlIm3v-40">
          <mxGeometry relative="1" as="geometry" />
        </mxCell>
        <mxCell id="21ydrOUmSF8WkzqlIm3v-37" style="edgeStyle=orthogonalEdgeStyle;rounded=0;orthogonalLoop=1;jettySize=auto;html=1;exitX=0.5;exitY=1;exitDx=0;exitDy=0;entryX=0.5;entryY=0;entryDx=0;entryDy=0;" edge="1" parent="1" source="21ydrOUmSF8WkzqlIm3v-38" target="21ydrOUmSF8WkzqlIm3v-43">
          <mxGeometry relative="1" as="geometry" />
        </mxCell>
        <mxCell id="21ydrOUmSF8WkzqlIm3v-38" value="&lt;font style=&quot;font-size: 14px;&quot;&gt;一级状态：待签收&lt;br&gt;二级状态：&lt;/font&gt;" style="rounded=0;whiteSpace=wrap;html=1;fillColor=#d5e8d4;strokeColor=#82b366;" vertex="1" parent="1">
          <mxGeometry x="549" y="2215" width="116.5" height="40" as="geometry" />
        </mxCell>
        <mxCell id="21ydrOUmSF8WkzqlIm3v-40" value="&lt;font style=&quot;font-size: 14px;&quot;&gt;一级状态：已完成&lt;br&gt;二级状态：&lt;/font&gt;" style="rounded=0;whiteSpace=wrap;html=1;fillColor=#d5e8d4;strokeColor=#82b366;" vertex="1" parent="1">
          <mxGeometry x="726" y="2215" width="116.5" height="40" as="geometry" />
        </mxCell>
        <mxCell id="21ydrOUmSF8WkzqlIm3v-41" value="&lt;font color=&quot;#ff0000&quot;&gt;&lt;span style=&quot;font-size: 14px;&quot;&gt;&lt;b&gt;项目经理&lt;br&gt;确认收货&lt;/b&gt;&lt;/span&gt;&lt;/font&gt;" style="text;html=1;align=center;verticalAlign=middle;resizable=0;points=[];autosize=1;strokeColor=none;fillColor=none;fontSize=11;" vertex="1" parent="1">
          <mxGeometry x="665.5" y="2180" width="80" height="50" as="geometry" />
        </mxCell>
        <mxCell id="21ydrOUmSF8WkzqlIm3v-42" style="edgeStyle=orthogonalEdgeStyle;rounded=0;orthogonalLoop=1;jettySize=auto;html=1;exitX=0;exitY=0.5;exitDx=0;exitDy=0;entryX=0.64;entryY=1.233;entryDx=0;entryDy=0;entryPerimeter=0;" edge="1" parent="1" source="21ydrOUmSF8WkzqlIm3v-43" target="21ydrOUmSF8WkzqlIm3v-27">
          <mxGeometry relative="1" as="geometry">
            <mxPoint x="360" y="2250" as="targetPoint" />
            <Array as="points">
              <mxPoint x="360" y="2340" />
            </Array>
          </mxGeometry>
        </mxCell>
        <mxCell id="21ydrOUmSF8WkzqlIm3v-43" value="&lt;font style=&quot;font-size: 14px;&quot;&gt;一级状态：拒绝收货&lt;br&gt;二级状态：&lt;/font&gt;" style="rounded=0;whiteSpace=wrap;html=1;fillColor=#d5e8d4;strokeColor=#82b366;" vertex="1" parent="1">
          <mxGeometry x="536.19" y="2320" width="142.12" height="40" as="geometry" />
        </mxCell>
        <mxCell id="21ydrOUmSF8WkzqlIm3v-44" value="&lt;font color=&quot;#ff0000&quot;&gt;&lt;span style=&quot;font-size: 14px;&quot;&gt;&lt;b&gt;项目经理&lt;br&gt;拒绝收货&lt;/b&gt;&lt;/span&gt;&lt;/font&gt;" style="text;html=1;align=center;verticalAlign=middle;resizable=0;points=[];autosize=1;strokeColor=none;fillColor=none;fontSize=11;" vertex="1" parent="1">
          <mxGeometry x="602.5" y="2255" width="80" height="50" as="geometry" />
        </mxCell>
        <mxCell id="21ydrOUmSF8WkzqlIm3v-60" value="&lt;font style=&quot;font-size: 14px;&quot;&gt;一级状态：备货中&lt;br&gt;二级状态：&lt;/font&gt;" style="rounded=0;whiteSpace=wrap;html=1;fillColor=#d5e8d4;strokeColor=#82b366;" vertex="1" parent="1">
          <mxGeometry x="54.5" y="2215" width="120" height="40" as="geometry" />
        </mxCell>
        <mxCell id="21ydrOUmSF8WkzqlIm3v-62" value="&lt;font color=&quot;#ff0000&quot; style=&quot;font-size: 14px;&quot;&gt;&lt;b&gt;备货完成&lt;/b&gt;&lt;/font&gt;" style="text;html=1;align=center;verticalAlign=middle;resizable=0;points=[];autosize=1;strokeColor=none;fillColor=none;fontSize=11;" vertex="1" parent="1">
          <mxGeometry x="159" y="2185" width="80" height="30" as="geometry" />
        </mxCell>
      </root>
    </mxGraphModel>
  </diagram>
</mxfile>
